<svg width="51" height="51" xmlns="http://www.w3.org/2000/svg">
    <g transform="translate(.714 .01)" fill="none" fill-rule="evenodd">
        <ellipse cx="25" cy="24.454" rx="25" ry="24.454" fill-rule="nonzero"/>
        <ellipse stroke="#E6E6E6" fill="#FFF" cx="24.977" cy="25" rx="24.477" ry="24.5"/>
        <path d="M25.432 14.495c-6.34 0-11.477 4.047-11.477 9.04.158 3.363 2.27 6.346 5.444 7.691-.24.893-.868 3.23-.996 3.735-.155.622.229.614.48.447.199-.134 3.146-2.128 4.417-2.99a14.54 14.54 0 0 0 2.13.157c6.34 0 11.477-4.048 11.477-9.04 0-4.993-5.138-9.04-11.477-9.04" fill="#381E1F" fill-rule="nonzero"/>
    </g>
</svg>
